<?xml version="1.0" encoding="UTF-8"?>
<svg xmlns="http://www.w3.org/2000/svg" xmlns:xlink="http://www.w3.org/1999/xlink" width="28px" height="20px" viewBox="0 0 28 20" version="1.1">
<g id="surface1">
<path style=" stroke:none;fill-rule:nonzero;fill:rgb(100%,100%,100%);fill-opacity:1;" d="M 1.5625 0.210938 L 26.429688 0.210938 C 27.277344 0.210938 27.964844 0.902344 27.964844 1.753906 L 27.964844 10 L 0.03125 10 L 0.03125 1.753906 C 0.03125 0.902344 0.71875 0.210938 1.5625 0.210938 Z M 1.5625 0.210938 "/>
<path style=" stroke:none;fill-rule:nonzero;fill:rgb(83.529412%,16.862745%,11.764706%);fill-opacity:1;" d="M 0.03125 10 L 27.96875 10 L 27.96875 18.246094 C 27.96875 19.097656 27.28125 19.789062 26.4375 19.789062 L 1.5625 19.789062 C 0.71875 19.789062 0.03125 19.089844 0.03125 18.246094 Z M 0.03125 10 "/>
<path style=" stroke:none;fill-rule:nonzero;fill:rgb(0%,22.352941%,65.098039%);fill-opacity:1;" d="M 0.03125 6.738281 L 27.96875 6.738281 L 27.96875 13.261719 L 0.03125 13.261719 Z M 0.03125 6.738281 "/>
<path style="fill:none;stroke-width:0.1199;stroke-linecap:butt;stroke-linejoin:miter;stroke:rgb(80%,80%,80%);stroke-opacity:1;stroke-miterlimit:2.6131;" d="M 3.087054 0.0602668 L 52.217511 0.0602668 C 53.892238 0.0602668 55.250541 1.416353 55.250541 3.086562 L 55.250541 35.418115 C 55.250541 37.088324 53.892238 38.452072 52.217511 38.452072 L 3.087054 38.452072 C 1.420045 38.452072 0.0617411 37.080662 0.0617411 35.418115 L 0.0617411 3.086562 C 0.0617411 1.416353 1.420045 0.0602668 3.087054 0.0602668 Z M 3.087054 0.0602668 " transform="matrix(0.506146,0,0,0.509854,0,0.18021)"/>
</g>
</svg>
